<svg xmlns="http://www.w3.org/2000/svg" viewBox="0 0 64 64" role="img" aria-label="TikTok Method">
  <path d="M32 12v25.5a10.5 10.5 0 1 1-8-10.2" fill="none" stroke="#25f4ee" stroke-width="7" stroke-linecap="round"/>
  <path d="M35 10c1 8 6 13 14 14" fill="none" stroke="#fe2c55" stroke-width="7" stroke-linecap="round"/>
  <path d="M34 12v25.5a10.5 10.5 0 1 1-8-10.2M37 10c1 7 5 11 12 13" fill="none" stroke="#fff" stroke-width="3.6" stroke-linecap="round"/>
  <circle cx="48" cy="46" r="12" fill="#0d1426" stroke="#d8e6ff" stroke-width="3"/>
  <path d="M48 39v3m0 8v3m-7-7h3m8 0h3m-11.5-4.5 2 2m5 5 2 2m0-9-2 2m-5 5-2 2" stroke="#aa8cff" stroke-width="2.7" stroke-linecap="round"/>
  <circle cx="48" cy="46" r="4" fill="none" stroke="#aa8cff" stroke-width="2.5"/>
</svg>